<svg xmlns="http://www.w3.org/2000/svg" width="480" height="192" viewBox="0 0 480 192" font-family="-apple-system,Segoe UI,Helvetica,Arial,sans-serif">
<rect x="0.5" y="0.5" width="479" height="191" rx="12" fill="#161b22" stroke="#30363d"/>
<text x="20" y="34" font-size="11" fill="#8b949e" font-weight="600" text-anchor="start" letter-spacing="1.5">GOVEE API</text>
<rect x="20" y="44" width="111" height="22" rx="11" fill="#3fb950" fill-opacity="0.16" stroke="#3fb950" stroke-opacity="0.5"/>
<circle cx="33" cy="55" r="4" fill="#3fb950"/>
<text x="43" y="59" font-size="12" fill="#3fb950" font-weight="700" text-anchor="start">OPERATIONAL</text>
<text x="460" y="40" font-size="26" fill="#e6edf3" font-weight="700" text-anchor="end">100.0%</text>
<text x="460" y="58" font-size="10.5" fill="#8b949e" font-weight="400" text-anchor="end">uptime / 30d</text>
<rect x="20.0" y="80" width="11.8" height="24" rx="2" fill="#3fb950"/>
<rect x="34.8" y="80" width="11.8" height="24" rx="2" fill="#3fb950"/>
<rect x="49.5" y="80" width="11.8" height="24" rx="2" fill="#3fb950"/>
<rect x="64.3" y="80" width="11.8" height="24" rx="2" fill="#3fb950"/>
<rect x="79.1" y="80" width="11.8" height="24" rx="2" fill="#3fb950"/>
<rect x="93.8" y="80" width="11.8" height="24" rx="2" fill="#3fb950"/>
<rect x="108.6" y="80" width="11.8" height="24" rx="2" fill="#3fb950"/>
<rect x="123.4" y="80" width="11.8" height="24" rx="2" fill="#3fb950"/>
<rect x="138.1" y="80" width="11.8" height="24" rx="2" fill="#3fb950"/>
<rect x="152.9" y="80" width="11.8" height="24" rx="2" fill="#3fb950"/>
<rect x="167.7" y="80" width="11.8" height="24" rx="2" fill="#3fb950"/>
<rect x="182.4" y="80" width="11.8" height="24" rx="2" fill="#3fb950"/>
<rect x="197.2" y="80" width="11.8" height="24" rx="2" fill="#3fb950"/>
<rect x="212.0" y="80" width="11.8" height="24" rx="2" fill="#3fb950"/>
<rect x="226.7" y="80" width="11.8" height="24" rx="2" fill="#3fb950"/>
<rect x="241.5" y="80" width="11.8" height="24" rx="2" fill="#3fb950"/>
<rect x="256.3" y="80" width="11.8" height="24" rx="2" fill="#3fb950"/>
<rect x="271.0" y="80" width="11.8" height="24" rx="2" fill="#3fb950"/>
<rect x="285.8" y="80" width="11.8" height="24" rx="2" fill="#3fb950"/>
<rect x="300.6" y="80" width="11.8" height="24" rx="2" fill="#3fb950"/>
<rect x="315.3" y="80" width="11.8" height="24" rx="2" fill="#3fb950"/>
<rect x="330.1" y="80" width="11.8" height="24" rx="2" fill="#3fb950"/>
<rect x="344.9" y="80" width="11.8" height="24" rx="2" fill="#3fb950"/>
<rect x="359.6" y="80" width="11.8" height="24" rx="2" fill="#3fb950"/>
<rect x="374.4" y="80" width="11.8" height="24" rx="2" fill="#3fb950"/>
<rect x="389.2" y="80" width="11.8" height="24" rx="2" fill="#3fb950"/>
<rect x="403.9" y="80" width="11.8" height="24" rx="2" fill="#3fb950"/>
<rect x="418.7" y="80" width="11.8" height="24" rx="2" fill="#3fb950"/>
<rect x="433.5" y="80" width="11.8" height="24" rx="2" fill="#3fb950"/>
<rect x="448.2" y="80" width="11.8" height="24" rx="2" fill="#3fb950"/>
<text x="20" y="130" font-size="10" fill="#8b949e" font-weight="600" text-anchor="start" letter-spacing="1.2">RESPONSE TIME</text>
<text x="460" y="130" font-size="10.5" fill="#8b949e" font-weight="400" text-anchor="end">avg 259 ms · last 72 checks</text>
<defs><linearGradient id="lg" x1="0" x2="0" y1="0" y2="1"><stop offset="0" stop-color="#3fb950" stop-opacity="0.35"/><stop offset="1" stop-color="#3fb950" stop-opacity="0"/></linearGradient></defs>
<path d="M20,170 L20.0,164.2 L26.2,166.3 L32.4,167.6 L38.6,168.3 L44.8,168.5 L51.0,169.2 L57.2,168.4 L63.4,167.9 L69.6,165.2 L75.8,169.3 L82.0,165.5 L88.2,166.7 L94.4,167.3 L100.6,166.4 L106.8,165.7 L113.0,167.0 L119.2,167.3 L125.4,169.4 L131.5,166.5 L137.7,168.8 L143.9,167.9 L150.1,170.0 L156.3,169.2 L162.5,166.9 L168.7,166.1 L174.9,167.1 L181.1,167.9 L187.3,167.4 L193.5,168.3 L199.7,167.6 L205.9,169.0 L212.1,169.3 L218.3,166.6 L224.5,166.8 L230.7,165.9 L236.9,169.1 L243.1,169.4 L249.3,169.5 L255.5,169.1 L261.7,167.0 L267.9,168.4 L274.1,142.0 L280.3,164.9 L286.5,169.5 L292.7,165.5 L298.9,167.5 L305.1,167.4 L311.3,168.0 L317.5,169.1 L323.7,169.3 L329.9,165.9 L336.1,166.6 L342.3,167.3 L348.5,169.5 L354.6,166.7 L360.8,169.2 L367.0,169.2 L373.2,169.4 L379.4,168.9 L385.6,168.0 L391.8,166.8 L398.0,166.3 L404.2,161.1 L410.4,166.4 L416.6,169.5 L422.8,166.6 L429.0,166.4 L435.2,166.3 L441.4,167.0 L447.6,167.3 L453.8,166.9 L460.0,166.7 L460.0,170 Z" fill="url(#lg)"/>
<polyline points="20.0,164.2 26.2,166.3 32.4,167.6 38.6,168.3 44.8,168.5 51.0,169.2 57.2,168.4 63.4,167.9 69.6,165.2 75.8,169.3 82.0,165.5 88.2,166.7 94.4,167.3 100.6,166.4 106.8,165.7 113.0,167.0 119.2,167.3 125.4,169.4 131.5,166.5 137.7,168.8 143.9,167.9 150.1,170.0 156.3,169.2 162.5,166.9 168.7,166.1 174.9,167.1 181.1,167.9 187.3,167.4 193.5,168.3 199.7,167.6 205.9,169.0 212.1,169.3 218.3,166.6 224.5,166.8 230.7,165.9 236.9,169.1 243.1,169.4 249.3,169.5 255.5,169.1 261.7,167.0 267.9,168.4 274.1,142.0 280.3,164.9 286.5,169.5 292.7,165.5 298.9,167.5 305.1,167.4 311.3,168.0 317.5,169.1 323.7,169.3 329.9,165.9 336.1,166.6 342.3,167.3 348.5,169.5 354.6,166.7 360.8,169.2 367.0,169.2 373.2,169.4 379.4,168.9 385.6,168.0 391.8,166.8 398.0,166.3 404.2,161.1 410.4,166.4 416.6,169.5 422.8,166.6 429.0,166.4 435.2,166.3 441.4,167.0 447.6,167.3 453.8,166.9 460.0,166.7" fill="none" stroke="#3fb950" stroke-width="1.8" stroke-linejoin="round"/>
<circle cx="460.0" cy="166.7" r="3" fill="#3fb950"/>
<text x="20" y="180" font-size="10.5" fill="#8b949e" font-weight="400" text-anchor="start">openapi + app2 · hourly</text>
<text x="460" y="180" font-size="10.5" fill="#8b949e" font-weight="400" text-anchor="end">updated 2026-07-03 17:48 UTC</text>
</svg>