<svg xmlns="http://www.w3.org/2000/svg" width="480" height="192" viewBox="0 0 480 192" font-family="-apple-system,Segoe UI,Helvetica,Arial,sans-serif">
<rect x="0.5" y="0.5" width="479" height="191" rx="12" fill="#161b22" stroke="#30363d"/>
<text x="20" y="34" font-size="11" fill="#8b949e" font-weight="600" text-anchor="start" letter-spacing="1.5">ACTIVE INSTALLS</text>
<text x="20" y="88" font-size="46" fill="#41BDF5" font-weight="700" text-anchor="start">3.8k</text>
<text x="24" y="116" font-size="12" fill="#3fb950" font-weight="600" text-anchor="start">▲ +181 / 7d</text>
<defs><linearGradient id="ig" x1="0" x2="0" y1="0" y2="1"><stop offset="0" stop-color="#41BDF5" stop-opacity="0.45"/><stop offset="1" stop-color="#41BDF5" stop-opacity="0"/></linearGradient></defs>
<path d="M190,162 L190.0,162.0 L199.3,162.0 L208.6,158.2 L217.9,152.3 L227.2,149.9 L236.6,146.6 L245.9,141.3 L255.2,138.7 L264.5,134.3 L273.8,131.6 L283.1,125.6 L292.4,125.6 L301.7,125.6 L311.0,110.2 L320.3,106.2 L329.7,104.5 L339.0,100.3 L348.3,96.7 L357.6,91.8 L366.9,87.6 L376.2,85.0 L385.5,81.2 L394.8,78.3 L404.1,73.2 L413.4,67.1 L422.8,62.0 L432.1,54.8 L441.4,51.0 L450.7,45.5 L460.0,40.0 L460.0,162 Z" fill="url(#ig)"/>
<polyline points="190.0,162.0 199.3,162.0 208.6,158.2 217.9,152.3 227.2,149.9 236.6,146.6 245.9,141.3 255.2,138.7 264.5,134.3 273.8,131.6 283.1,125.6 292.4,125.6 301.7,125.6 311.0,110.2 320.3,106.2 329.7,104.5 339.0,100.3 348.3,96.7 357.6,91.8 366.9,87.6 376.2,85.0 385.5,81.2 394.8,78.3 404.1,73.2 413.4,67.1 422.8,62.0 432.1,54.8 441.4,51.0 450.7,45.5 460.0,40.0" fill="none" stroke="#41BDF5" stroke-width="2" stroke-linejoin="round"/>
<circle cx="460.0" cy="40.0" r="3.5" fill="#41BDF5"/>
<text x="20" y="178" font-size="10.5" fill="#8b949e" font-weight="400" text-anchor="start">HA analytics · of 9.6k domain total</text>
<text x="460" y="178" font-size="10.5" fill="#8b949e" font-weight="400" text-anchor="end">updated 2026-07-03 07:34 UTC</text>
</svg>