<svg xmlns="http://www.w3.org/2000/svg" width="760" height="180" viewBox="0 0 760 180" font-family="-apple-system,Segoe UI,Helvetica,Arial,sans-serif">
<rect x="0.5" y="0.5" width="759" height="179" rx="12" fill="#161b22" stroke="#30363d"/>
<text x="20" y="34" font-size="11" fill="#8b949e" font-weight="600" text-anchor="start" letter-spacing="1.5">GITHUB STARS</text>
<text x="20" y="92" font-size="46" fill="#e3b341" font-weight="700" text-anchor="start">76</text>
<text x="24" y="120" font-size="12" fill="#3fb950" font-weight="600" text-anchor="start">★ +19 / 30d</text>
<defs><linearGradient id="sg" x1="0" x2="0" y1="0" y2="1"><stop offset="0" stop-color="#e3b341" stop-opacity="0.4"/><stop offset="1" stop-color="#e3b341" stop-opacity="0"/></linearGradient></defs>
<path d="M220,148 L220.0,146.6 L220.3,145.1 L222.4,143.7 L224.4,142.2 L230.3,140.8 L231.2,139.3 L232.8,137.9 L233.7,136.4 L235.1,135.0 L239.6,133.5 L243.0,132.1 L243.3,130.6 L253.9,129.2 L255.4,127.7 L265.2,126.3 L267.9,124.8 L279.8,123.4 L305.7,121.9 L313.3,120.5 L315.1,119.1 L345.2,117.6 L353.0,116.2 L367.1,114.7 L367.9,113.3 L369.8,111.8 L384.3,110.4 L397.1,108.9 L405.3,107.5 L408.5,106.0 L416.6,104.6 L421.1,103.1 L421.5,101.7 L422.5,100.2 L427.9,98.8 L430.0,97.3 L460.2,95.9 L462.2,94.4 L463.5,93.0 L467.9,91.6 L481.8,90.1 L481.9,88.7 L482.0,87.2 L488.1,85.8 L489.8,84.3 L493.6,82.9 L495.0,81.4 L504.6,80.0 L531.4,78.5 L537.4,77.1 L564.0,75.6 L565.7,74.2 L578.3,72.7 L585.4,71.3 L586.9,69.8 L587.0,68.4 L606.2,66.9 L641.5,65.5 L652.7,64.1 L655.2,62.6 L660.7,61.2 L676.8,59.7 L677.0,58.3 L685.1,56.8 L687.0,55.4 L697.5,53.9 L699.2,52.5 L711.3,51.0 L720.8,49.6 L722.6,48.1 L724.2,46.7 L725.3,45.2 L727.3,43.8 L728.5,42.3 L734.2,40.9 L735.6,39.4 L737.4,38.0 L740.0,38.0 L740.0,148 Z" fill="url(#sg)"/>
<polyline points="220.0,146.6 220.3,145.1 222.4,143.7 224.4,142.2 230.3,140.8 231.2,139.3 232.8,137.9 233.7,136.4 235.1,135.0 239.6,133.5 243.0,132.1 243.3,130.6 253.9,129.2 255.4,127.7 265.2,126.3 267.9,124.8 279.8,123.4 305.7,121.9 313.3,120.5 315.1,119.1 345.2,117.6 353.0,116.2 367.1,114.7 367.9,113.3 369.8,111.8 384.3,110.4 397.1,108.9 405.3,107.5 408.5,106.0 416.6,104.6 421.1,103.1 421.5,101.7 422.5,100.2 427.9,98.8 430.0,97.3 460.2,95.9 462.2,94.4 463.5,93.0 467.9,91.6 481.8,90.1 481.9,88.7 482.0,87.2 488.1,85.8 489.8,84.3 493.6,82.9 495.0,81.4 504.6,80.0 531.4,78.5 537.4,77.1 564.0,75.6 565.7,74.2 578.3,72.7 585.4,71.3 586.9,69.8 587.0,68.4 606.2,66.9 641.5,65.5 652.7,64.1 655.2,62.6 660.7,61.2 676.8,59.7 677.0,58.3 685.1,56.8 687.0,55.4 697.5,53.9 699.2,52.5 711.3,51.0 720.8,49.6 722.6,48.1 724.2,46.7 725.3,45.2 727.3,43.8 728.5,42.3 734.2,40.9 735.6,39.4 737.4,38.0 740.0,38.0" fill="none" stroke="#e3b341" stroke-width="2" stroke-linejoin="round"/>
<circle cx="740.0" cy="38.0" r="3.5" fill="#e3b341"/>
<text x="20" y="167" font-size="10.5" fill="#8b949e" font-weight="400" text-anchor="start">since Jan 2026 · 76 stargazers</text>
<text x="740" y="167" font-size="10.5" fill="#8b949e" font-weight="400" text-anchor="end">updated 2026-07-03 07:34 UTC</text>
</svg>