<svg xmlns="http://www.w3.org/2000/svg" width="760" height="297" viewBox="0 0 760 297" font-family="-apple-system,Segoe UI,Helvetica,Arial,sans-serif">
<rect x="0.5" y="0.5" width="759" height="296" rx="12" fill="#161b22" stroke="#30363d"/>
<text x="20" y="32" font-size="11" fill="#8b949e" font-weight="600" text-anchor="start" letter-spacing="1.5">VERSION BREAKDOWN</text>
<text x="20" y="50" font-size="11.5" fill="#8b949e" font-weight="400" text-anchor="start">active installs by release</text>
<text x="740" y="42" font-size="24" fill="#41BDF5" font-weight="700" text-anchor="end">3.8k</text>
<text x="90" y="81.5" font-size="11.5" fill="#e6edf3" font-weight="700" text-anchor="end">2026.7.3</text>
<rect x="98" y="70" width="12.2" height="12" rx="3" fill="#3fb950" fill-opacity="0.95"/>
<text x="740" y="81.5" font-size="10.5" fill="#8b949e" font-weight="400" text-anchor="end">37 · 1%</text>
<text x="90" y="104.5" font-size="11.5" fill="#8b949e" font-weight="400" text-anchor="end">2026.7.2</text>
<rect x="98" y="93" width="11.3" height="12" rx="3" fill="#41BDF5" fill-opacity="0.65"/>
<text x="740" y="104.5" font-size="10.5" fill="#8b949e" font-weight="400" text-anchor="end">34 · 1%</text>
<text x="90" y="127.5" font-size="11.5" fill="#8b949e" font-weight="400" text-anchor="end">2026.7.1</text>
<rect x="98" y="116" width="2.0" height="12" rx="3" fill="#41BDF5" fill-opacity="0.65"/>
<text x="740" y="127.5" font-size="10.5" fill="#8b949e" font-weight="400" text-anchor="end">3 · 0%</text>
<text x="90" y="150.5" font-size="11.5" fill="#8b949e" font-weight="400" text-anchor="end">2026.6.26</text>
<rect x="98" y="139" width="395.2" height="12" rx="3" fill="#41BDF5" fill-opacity="0.65"/>
<text x="740" y="150.5" font-size="10.5" fill="#8b949e" font-weight="400" text-anchor="end">1.2k · 32%</text>
<text x="90" y="173.5" font-size="11.5" fill="#8b949e" font-weight="400" text-anchor="end">2026.6.25</text>
<rect x="98" y="162" width="5.0" height="12" rx="3" fill="#41BDF5" fill-opacity="0.65"/>
<text x="740" y="173.5" font-size="10.5" fill="#8b949e" font-weight="400" text-anchor="end">15 · 0%</text>
<text x="90" y="196.5" font-size="11.5" fill="#8b949e" font-weight="400" text-anchor="end">2026.6.24</text>
<rect x="98" y="185" width="100.9" height="12" rx="3" fill="#41BDF5" fill-opacity="0.65"/>
<text x="740" y="196.5" font-size="10.5" fill="#8b949e" font-weight="400" text-anchor="end">305 · 8%</text>
<text x="90" y="219.5" font-size="11.5" fill="#8b949e" font-weight="400" text-anchor="end">2026.6.23</text>
<rect x="98" y="208" width="22.8" height="12" rx="3" fill="#41BDF5" fill-opacity="0.65"/>
<text x="740" y="219.5" font-size="10.5" fill="#8b949e" font-weight="400" text-anchor="end">69 · 2%</text>
<text x="90" y="242.5" font-size="11.5" fill="#8b949e" font-weight="400" text-anchor="end">2026.6.22</text>
<rect x="98" y="231" width="135.4" height="12" rx="3" fill="#41BDF5" fill-opacity="0.65"/>
<text x="740" y="242.5" font-size="10.5" fill="#8b949e" font-weight="400" text-anchor="end">409 · 11%</text>
<text x="90" y="265.5" font-size="11.5" fill="#8b949e" font-weight="400" text-anchor="end">+47 older</text>
<rect x="98" y="254" width="558.0" height="12" rx="3" fill="#41BDF5" fill-opacity="0.65"/>
<text x="740" y="265.5" font-size="10.5" fill="#8b949e" font-weight="400" text-anchor="end">1.7k · 45%</text>
<text x="20" y="286" font-size="10.5" fill="#8b949e" font-weight="400" text-anchor="start">newest 2026.7.3 · 55 releases in use</text>
<text x="740" y="286" font-size="10.5" fill="#8b949e" font-weight="400" text-anchor="end">updated 2026-07-03 07:34 UTC</text>
</svg>